<svg version="1.0" xmlns="http://www.w3.org/2000/svg"
 width="119.000000pt" height="109.000000pt" viewBox="0 0 119.000000 109.000000"
 preserveAspectRatio="xMidYMid meet">

<g transform="translate(0.000000,109.000000) scale(0.100000,-0.100000)"
fill="#000000" stroke="none">
<path d="M330 840 c-19 -19 -20 -33 -20 -240 l0 -220 30 0 30 0 0 210 0 210
180 0 180 0 0 30 0 30 -190 0 c-177 0 -191 -1 -210 -20z"/>
<path d="M450 720 c-19 -19 -20 -33 -20 -250 0 -217 1 -231 20 -250 19 -19 33
-20 205 -20 172 0 186 1 205 20 19 19 20 33 20 250 0 217 -1 231 -20 250 -19
19 -33 20 -205 20 -172 0 -186 -1 -205 -20z m370 -250 l0 -210 -165 0 -165 0
0 210 0 210 165 0 165 0 0 -210z"/>
</g>
</svg>
