<svg version="1.0" xmlns="http://www.w3.org/2000/svg"
 width="474.000000pt" height="474.000000pt" viewBox="0 0 474.000000 474.000000"
 preserveAspectRatio="xMidYMid meet">

<g transform="translate(0.000000,474.000000) scale(0.100000,-0.100000)"
fill="#000000" stroke="none">
<path d="M1247 3869 c-255 -22 -513 -113 -716 -251 -98 -68 -274 -244 -333
-333 -88 -136 -146 -271 -170 -399 -7 -36 -16 -62 -20 -60 -4 3 -8 -69 -8
-160 0 -91 4 -166 8 -166 5 0 14 -30 21 -67 26 -136 114 -320 215 -451 68 -89
203 -212 305 -280 51 -33 97 -62 103 -64 5 -2 16 -55 24 -118 19 -144 36 -198
83 -258 56 -70 134 -106 231 -107 101 0 131 16 324 167 l158 125 102 12 c439
54 827 280 1038 605 173 269 227 602 142 893 -148 510 -611 856 -1224 912
-126 12 -153 12 -283 0z m266 -300 c280 -24 512 -124 702 -301 124 -116 201
-238 246 -393 31 -105 33 -304 5 -405 -55 -192 -153 -335 -322 -470 -74 -59
-227 -142 -329 -178 -81 -29 -240 -59 -355 -68 l-95 -7 -185 -144 c-172 -134
-185 -143 -191 -121 -3 13 -16 98 -29 189 l-24 167 -47 20 c-151 63 -340 214
-435 348 -48 67 -102 180 -125 259 -22 77 -18 332 5 410 75 245 263 456 511
575 151 72 255 101 421 119 113 12 116 12 247 0z"/>
<path d="M1308 3140 c-68 -12 -162 -66 -203 -116 -63 -77 -68 -103 -69 -349
-1 -209 0 -222 22 -271 29 -63 90 -124 162 -160 77 -39 207 -45 298 -15 l63
22 45 -37 45 -37 50 49 49 48 -41 42 c-40 41 -40 42 -26 70 30 58 38 117 38
282 0 193 -10 257 -49 321 -34 54 -110 115 -171 136 -56 19 -153 26 -213 15z
m170 -187 c56 -42 67 -76 70 -227 2 -76 1 -158 -3 -182 l-6 -45 -35 31 c-19
16 -38 30 -42 30 -4 0 -29 -22 -56 -49 l-47 -48 42 -37 c23 -20 39 -39 35 -43
-16 -16 -106 -7 -134 14 -72 53 -88 123 -80 338 6 150 21 189 88 223 54 28
127 26 168 -5z"/>
<path d="M3160 3455 c-110 -19 -194 -42 -297 -81 l-93 -35 39 -72 c21 -40 49
-98 62 -130 17 -42 27 -57 39 -53 8 2 56 19 105 36 126 44 228 60 385 60 211
-1 323 -23 501 -99 215 -93 402 -270 489 -465 85 -190 86 -424 1 -610 -87
-192 -275 -375 -477 -462 -42 -19 -64 -35 -68 -48 -2 -12 -14 -94 -27 -183
l-22 -161 -56 41 c-31 22 -108 82 -171 133 -64 50 -125 96 -135 101 -11 5 -56
11 -100 12 -167 5 -308 43 -476 127 -88 44 -206 126 -246 171 l-22 25 -73 -64
c-41 -34 -92 -78 -114 -95 l-39 -33 60 -55 c216 -201 529 -338 821 -361 l81
-7 159 -125 c185 -145 223 -165 314 -165 78 0 139 24 198 77 55 50 78 111 98
257 l17 124 56 34 c262 159 458 404 533 666 13 44 26 82 30 83 10 5 10 419 0
424 -4 2 -15 35 -25 73 -94 358 -428 680 -840 810 -193 61 -511 84 -707 50z"/>
<path d="M3332 2753 c-12 -23 -342 -840 -342 -848 0 -3 42 -5 94 -5 l94 0 18
48 c10 26 25 67 34 91 l17 44 158 -1 c117 -1 161 -5 166 -14 5 -7 21 -48 36
-90 l28 -78 93 0 c85 0 94 2 90 18 -3 10 -80 205 -172 433 l-167 416 -69 2
c-57 2 -70 -1 -78 -16z m132 -397 c25 -66 46 -122 46 -125 0 -6 -199 -5 -205
1 -2 2 20 61 48 131 27 70 53 124 57 120 4 -4 28 -62 54 -127z"/>
</g>
</svg>
